<svg id="图层_1" data-name="图层 1" xmlns="http://www.w3.org/2000/svg" xmlns:xlink="http://www.w3.org/1999/xlink" viewBox="0 0 517.51 88.09"><defs><style>.cls-1{fill:url(#未命名的渐变_2);}.cls-2{fill:url(#未命名的渐变_3);}.cls-3{fill:url(#未命名的渐变_3-2);}.cls-4{fill:url(#未命名的渐变_4);}.cls-5{fill:url(#未命名的渐变_5);}.cls-6{fill:url(#未命名的渐变_6);}.cls-7{fill:#4e5156;}</style><linearGradient id="未命名的渐变_2" x1="136.1" y1="139.51" x2="136.1" y2="90.09" gradientTransform="matrix(1, 0, 0, -1, -72.19, 178.18)" gradientUnits="userSpaceOnUse"><stop offset="0" stop-color="#7bc062"/><stop offset="1" stop-color="#3f8ecd"/></linearGradient><linearGradient id="未命名的渐变_3" x1="126.4" y1="92.86" x2="126.4" y2="154.33" gradientTransform="matrix(1, 0, 0, -1, 0, 252)" gradientUnits="userSpaceOnUse"><stop offset="0" stop-color="#3695d3"/><stop offset="1" stop-color="#2961ae"/></linearGradient><linearGradient id="未命名的渐变_3-2" x1="140.01" y1="107.45" x2="161.67" y2="107.45" xlink:href="#未命名的渐变_3"/><linearGradient id="未命名的渐变_4" x1="149" y1="93.92" x2="187.44" y2="160.48" gradientTransform="matrix(1, 0, 0, -1, 0, 252)" gradientUnits="userSpaceOnUse"><stop offset="0" stop-color="#204ea1"/><stop offset="1" stop-color="#3172ba"/></linearGradient><linearGradient id="未命名的渐变_5" x1="137.49" y1="118.71" x2="109.97" y2="166.39" gradientTransform="matrix(1, 0, 0, -1, 0, 252)" gradientUnits="userSpaceOnUse"><stop offset="0" stop-color="#204ea1"/><stop offset="1" stop-color="#3288c9"/></linearGradient><linearGradient id="未命名的渐变_6" x1="117.52" y1="155.31" x2="84.45" y2="98.03" gradientTransform="matrix(1, 0, 0, -1, 0, 252)" gradientUnits="userSpaceOnUse"><stop offset="0" stop-color="#204ea1"/><stop offset="0.69" stop-color="#2c5caa"/><stop offset="1" stop-color="#346fb7"/></linearGradient></defs><title>ai</title><g id="图层_2" data-name="图层 2"><g id="图层_1-2" data-name="图层 1-2"><polygon class="cls-1" points="47.01 88.09 57.49 88.09 80.8 47.73 75.56 38.67 47.01 88.09"/><path class="cls-2" d="M109.81,151.4a5.25,5.25,0,0,1,5.24,5.24v0a5,5,0,0,1-.64,2.47l29.79-51.59-4.67-9.88L108.6,151.55A5,5,0,0,1,109.81,151.4Z" transform="translate(-72.19 -73.82)"/><path class="cls-3" d="M151.91,151.52l9.18-15.93-4.85-8.4-15.75,27.28h0a5.2,5.2,0,0,0,4.64,7.44h16.51V151.52Z" transform="translate(-72.19 -73.82)"/><path class="cls-4" d="M186.18,105.17a42.16,42.16,0,0,0-38.7-31.35V84.24a31.82,31.82,0,0,1,29.76,31,17.82,17.82,0,0,1,3-.27,18.31,18.31,0,0,1,2.44,36.44H151.94a6.4,6.4,0,0,0-1.3,3.88,6.54,6.54,0,0,0,6.54,6.54h23.13a28.67,28.67,0,0,0,6-56.74Z" transform="translate(-72.19 -73.82)"/><path class="cls-5" d="M145.43,73.82A42.17,42.17,0,0,0,110.11,93c-1.12,0-2.23-.15-3.38-.15a34.55,34.55,0,0,0-34.54,34.55,33.09,33.09,0,0,0,4.52,16.2,24.08,24.08,0,0,1,6-13.7v-2.5a24.1,24.1,0,0,1,24.09-24.1,24.5,24.5,0,0,1,9,1.69,31.77,31.77,0,0,1,59.6.18,29.74,29.74,0,0,1,5.15-.57,26.91,26.91,0,0,1,5.66.57A42.16,42.16,0,0,0,145.43,73.82Z" transform="translate(-72.19 -73.82)"/><path class="cls-6" d="M117.58,153.66l3.43-6a36.48,36.48,0,0,1-14.28,3.83,24.11,24.11,0,0,1-1.47-48.19,40.72,40.72,0,0,1,5.15-10.69l-.3.42c-1.12,0-2.23-.15-3.38-.15a34.55,34.55,0,0,0-34.54,34.52c0,17,15.48,34.54,34.54,34.54h3a5.21,5.21,0,0,0,4.6-2.77h0Z" transform="translate(-72.19 -73.82)"/><path class="cls-7" d="M269.51,91.32l-3,9h23.73c3.94-.18,5.81,1.69,5.63,5.66v37.08q.27,5.91-5.63,5.63H243.55c-3.76.09-5.72-1.78-5.72-5.63V106c0-4,1.9-5.84,5.66-5.66h16.92l2.84-9H235.63c-1.69,0-2.62-.94-2.8-2.83s1.11-2.8,2.8-2.8h62.13c1.5,0,2.26.93,2.26,2.8s-.76,2.83-2.26,2.83Zm-26,30.51h46.86v-13a2.5,2.5,0,0,0-2.15-2.81,2.58,2.58,0,0,0-.68,0h-41.2a2.51,2.51,0,0,0-2.83,2.13,2.58,2.58,0,0,0,0,.68Zm44,21.08c1.9,0,2.83-.85,2.83-2.56V127.46H243.55v13c0,1.71.93,2.56,2.83,2.56Z" transform="translate(-72.19 -73.82)"/><path class="cls-7" d="M359.32,93.85v6.77h9.3a2.56,2.56,0,0,1,.56,5.09,2.62,2.62,0,0,1-.56,0h-9.3v5.09c.54,4.34-1.6,6.3-6.51,6H331.37q-7.35.87-6.78-6.51V105.8h-9.91v18.37A60.47,60.47,0,0,1,311,145.89a3,3,0,0,1-3.88,1.75l-.1,0a2.47,2.47,0,0,1-1.69-3,2.67,2.67,0,0,1,.28-.62,42.32,42.32,0,0,0,3.67-20.06v-29c-.18-4.33,1.9-6.41,6.24-6.2h21.65a28,28,0,0,0-1.38-3.41,2.75,2.75,0,1,1,5.05-2.16c1.15,2.65,1.9,4.51,2.26,5.66h25.15c1.51,0,2.26.84,2.26,2.53s-.75,2.53-2.26,2.53Zm-36.44,32.76a2.59,2.59,0,1,1-1-5.09,2.64,2.64,0,0,1,1,0h37.55c4.52.4,5.75,2.44,3.67,6.21A42.6,42.6,0,0,1,350,140.44,90,90,0,0,0,371.06,145a2.56,2.56,0,0,1,2.57,2.55,1.41,1.41,0,0,1,0,.29c-.57,1.86-1.69,2.74-3.4,2.52A92.13,92.13,0,0,1,344,143.54a125.32,125.32,0,0,1-26.54,7.35c-2.07.18-3.28-.58-3.67-2.26s.66-2.71,2.56-3a122.77,122.77,0,0,0,21.08-4.79,77.93,77.93,0,0,1-12.71-7.62,2.59,2.59,0,0,1-.58-3.62,2.67,2.67,0,0,1,.31-.36,3,3,0,0,1,3.95-.27,101.86,101.86,0,0,0,15.05,8.77c7.32-3.77,12-7.44,13.83-11Zm-8.2-26h9.91V93.85h-7.65a2,2,0,0,0-2.26,1.67,2,2,0,0,0,0,.59Zm15.06,5.09V110c-.18,1.51.57,2.17,2.26,2h20.27c1.71.21,2.35-.54,2-2.26v-4Zm0-11.86v6.77h24.58V93.85Z" transform="translate(-72.19 -73.82)"/><path class="cls-7" d="M407.59,110.23A158.48,158.48,0,0,1,387.53,141a375.43,375.43,0,0,0,44.61-1.69,95.74,95.74,0,0,0-9-13.85c-1.11-1.87-1-3.37.3-4.52s3-.54,4.52,1.15a155.56,155.56,0,0,1,13.55,22.58c1.12,2.26.84,3.95-.84,5.09-1.9.54-3.4-.3-4.52-2.56a10.11,10.11,0,0,0-1.41-3.37c-7.53.75-15.24,1.2-23.16,1.42s-17.14.45-27.68.27c-2.26.18-3.67-.27-4.22-1.42s0-2.35,1.42-3.67a146.43,146.43,0,0,0,20.33-30.12H380.31c-1.69,0-2.62-.93-2.8-2.83A2.51,2.51,0,0,1,380,105h60.16a2.68,2.68,0,0,1,3,2.33c0,.06,0,.13,0,.2a2.8,2.8,0,0,1-2.76,2.84h-.25Zm-22-20.33a2.69,2.69,0,1,1-.18-5.36h50.26a2.68,2.68,0,0,1,3,2.33,1.23,1.23,0,0,1,0,.2,2.8,2.8,0,0,1-2.76,2.84H385.58Z" transform="translate(-72.19 -73.82)"/><path class="cls-7" d="M466.89,92.73h10.72q4.51,0,4.52,4.79v19.22a94.86,94.86,0,0,1-.3,9.6c-.18,5.63-.55,10.63-1.12,15.06q-1.41,10.48-15.54,6.78a3.48,3.48,0,0,1-2.53-3.65,3,3,0,0,1,3.38-2.26c5.48,1.69,8.58,1,9.33-2a277.89,277.89,0,0,0,1.42-36.14v-4.07c0-1.5-.67-2.26-2-2.26h-7.89q-1.44,35.57-12.44,49.69a3,3,0,0,1-3.94,1.42c-1.9-1.14-2.44-2.47-1.69-4q11.83-15.81,12.05-47.13h-9c-1.5,0-2.38-.84-2.56-2.56s1.06-2.53,2.56-2.53h9V84.54c.18-1.5,1.2-2.35,3-2.53a3.2,3.2,0,0,1,2.83,2.8Zm43.46-5.36a4,4,0,0,1,4.54,3.39,3.57,3.57,0,0,1,0,1.13v51.65a4.21,4.21,0,0,1-3.45,4.86,4.36,4.36,0,0,1-1.61,0H493.45a4.91,4.91,0,0,1-5.38-4.39,5.17,5.17,0,0,1,0-.88V91.89a4.46,4.46,0,0,1,4.38-4.53h17.91Zm-16.93,54.21c0,.93.57,1.42,1.69,1.42h12.71c1.11,0,1.68-.49,1.68-1.42V94.72a2.11,2.11,0,0,0-1.68-2H495.11a1.52,1.52,0,0,0-1.69,1.3,1.28,1.28,0,0,0,0,.39Z" transform="translate(-72.19 -73.82)"/><path class="cls-7" d="M586.3,142.15a3,3,0,0,1,3.38,2.59,1.49,1.49,0,0,1,0,.21c0,1.72-1.05,2.65-3,2.84H565.61a82.32,82.32,0,0,1-18.34-1.42,31.33,31.33,0,0,1-11.87-6.48,33.51,33.51,0,0,1-9.57,6.78,3,3,0,0,1-4-1.14c-.75-1.87-.36-3,1.15-3.68a17.44,17.44,0,0,0,6.77-4.52,9.19,9.19,0,0,0,2-6.2V114.75c.21-1.69-.75-2.44-2.8-2.26h-4.52a2.77,2.77,0,0,1-2.56-2.83c.18-1.87,1-2.8,2.56-2.8h8.19c3,0,4.52,1.77,4.52,5.36v17.5a13.23,13.23,0,0,0,7.62,9.87c3.76,1.69,10.33,2.56,19.75,2.56ZM539.17,95.84a3,3,0,0,1,0,4.24,2.62,2.62,0,0,1-3.71,0,2,2,0,0,1-.27-.31,64.32,64.32,0,0,0-9.3-9.58,2.61,2.61,0,0,1-.55-3.66,2.8,2.8,0,0,1,.28-.31,3,3,0,0,1,4.21,0A50,50,0,0,1,539.17,95.84Zm27.37-6.78H586.3a2,2,0,0,1,2.26,1.67,2,2,0,0,1,0,.59c0,1.68-.76,2.53-2.26,2.53H566.54v5.09h14.13a4.23,4.23,0,0,1,4.79,3.62,4.82,4.82,0,0,1,0,1.2v8.46q.27,5.06-4.79,4.79H566.54v3a2,2,0,0,1,2,0,135.84,135.84,0,0,1,18.64,11,3.33,3.33,0,0,1,1.15,4.25,2.69,2.69,0,0,1-3.73.71l-.22-.17a107.15,107.15,0,0,0-17.8-10.72v12a2.56,2.56,0,1,1-5.09.56,2.62,2.62,0,0,1,0-.56V122.94A68,68,0,0,1,546,135.65a3,3,0,0,1-4.25-.23,2.78,2.78,0,0,1-.26-.34c-.76-1.51-.31-3,1.38-4.22a85.84,85.84,0,0,0,17-13.85H548c-3.58.18-5.27-1.42-5.09-4.79v-8.46c0-3.23,1.72-4.82,5.09-4.82h13.55V93.85H543.81c-1.54,0-2.26-.85-2.26-2.53a2,2,0,0,1,1.67-2.26,1.94,1.94,0,0,1,.59,0h17.76V85.39a2.29,2.29,0,0,1,2.31-2.28l.25,0c1.69.18,2.53,1.05,2.53,2.56ZM548,109.12a2.26,2.26,0,0,0,2,2.53,2.08,2.08,0,0,0,.61,0h11v-7.71H550.28a2,2,0,0,0-2.26,1.67,1.94,1.94,0,0,0,0,.59Zm18.52-5.18v7.62h11.87c1.29,0,2-.76,2-2.26v-2.83c.18-1.69-.55-2.53-2.26-2.53Z" transform="translate(-72.19 -73.82)"/></g></g></svg>