<svg id="图层_2" data-name="图层 2" xmlns="http://www.w3.org/2000/svg" viewBox="0 0 182 138.79"><defs><style>.cls-1{fill:#0348fe;}.cls-2{fill:#027dff;}.cls-3{fill:#0507d9;}</style></defs><path class="cls-1" d="M74.25,525.44l14.56-51.73a14.37,14.37,0,0,1,13.81-10.48h72L160,515.06a14.38,14.38,0,0,1-13.81,10.47H74.25Z" transform="translate(-74.25 -386.74)"/><path class="cls-2" d="M118.57,411.4l5.75-20.49a5.75,5.75,0,0,1,5.47-4.17h28.46l-5.75,20.49A5.76,5.76,0,0,1,147,411.4Z" transform="translate(-74.25 -386.74)"/><path class="cls-2" d="M115,487.24l14.56-51.73A14.39,14.39,0,0,1,143.42,425h72L200.9,476.77a14.38,14.38,0,0,1-13.82,10.47Z" transform="translate(-74.25 -386.74)"/><path class="cls-3" d="M143.42,425.12A14.39,14.39,0,0,0,129.6,435.6L155.84,449,162.61,425H143.42Z" transform="translate(-74.25 -386.74)"/><path class="cls-3" d="M102.62,463.32A14.38,14.38,0,0,0,88.81,473.8L115,487.24l6.77-23.92Z" transform="translate(-74.25 -386.74)"/><path class="cls-1" d="M155.84,449l14.56-51.73a14.37,14.37,0,0,1,13.81-10.48h72l-14.56,51.73A14.37,14.37,0,0,1,227.88,449Z" transform="translate(-74.25 -386.74)"/></svg>