<svg id="图层_1" data-name="图层 1" xmlns="http://www.w3.org/2000/svg" viewBox="0 0 477.88 147.48"><defs><style>.cls-1{fill:#0348fe;}.cls-2{fill:#027dff;}.cls-3{fill:#0507d9;}.cls-4{font-size:84.17px;}.cls-4,.cls-5{font-family:HappyZcool-2016;}.cls-5{font-size:48px;}</style></defs><path class="cls-1" d="M80,384.68l14.56-51.74a14.38,14.38,0,0,1,13.81-10.48h72l-14.65,51.83A14.39,14.39,0,0,1,152,384.77H80Z" transform="translate(-80 -245.34)"/><path class="cls-2" d="M124.32,270.64l5.75-20.49a5.76,5.76,0,0,1,5.47-4.18H164l-5.75,20.49a5.77,5.77,0,0,1-5.47,4.18Z" transform="translate(-80 -245.34)"/><path class="cls-2" d="M120.79,346.48l14.56-51.74a14.39,14.39,0,0,1,13.82-10.48h72L206.65,336a14.39,14.39,0,0,1-13.82,10.48Z" transform="translate(-80 -245.34)"/><path class="cls-3" d="M149.17,284.36a14.38,14.38,0,0,0-13.82,10.47l26.24,13.36,6.77-23.93H149.17Z" transform="translate(-80 -245.34)"/><path class="cls-3" d="M108.37,322.56A14.37,14.37,0,0,0,94.56,333l26.23,13.45,6.77-23.92Z" transform="translate(-80 -245.34)"/><path class="cls-1" d="M161.59,308.19l14.56-51.74A14.38,14.38,0,0,1,190,246h72l-14.56,51.74a14.38,14.38,0,0,1-13.81,10.48Z" transform="translate(-80 -245.34)"/><text class="cls-4" transform="translate(141.21 134.69)">得益小栈</text><text class="cls-5" transform="translate(216.26 41.23)">DevYi.com</text></svg>