<svg id="图层_1" data-name="图层 1" xmlns="http://www.w3.org/2000/svg" viewBox="0 0 473.83 138.79"><defs><style>.cls-1{fill:#0348fe;}.cls-2{fill:#027dff;}.cls-3{fill:#0507d9;}</style></defs><path class="cls-1" d="M80,182.68l14.56-51.74a14.38,14.38,0,0,1,13.81-10.48h72l-14.65,51.83A14.39,14.39,0,0,1,152,182.77H80Z" transform="translate(-80 -43.97)"/><path class="cls-2" d="M124.32,68.64l5.75-20.49A5.76,5.76,0,0,1,135.54,44H164l-5.75,20.49a5.77,5.77,0,0,1-5.47,4.18Z" transform="translate(-80 -43.97)"/><path class="cls-2" d="M120.79,144.48l14.56-51.74a14.39,14.39,0,0,1,13.82-10.48h72L206.65,134a14.39,14.39,0,0,1-13.82,10.48Z" transform="translate(-80 -43.97)"/><path class="cls-3" d="M149.17,82.36a14.38,14.38,0,0,0-13.82,10.47l26.24,13.36,6.77-23.93H149.17Z" transform="translate(-80 -43.97)"/><path class="cls-3" d="M108.37,120.56A14.37,14.37,0,0,0,94.56,131l26.23,13.45,6.77-23.92Z" transform="translate(-80 -43.97)"/><path class="cls-1" d="M161.59,106.19l14.56-51.74A14.38,14.38,0,0,1,190,44h72L247.44,95.71a14.38,14.38,0,0,1-13.81,10.48Z" transform="translate(-80 -43.97)"/><path d="M227.76,117.52l21-10.77,3.7,7.15-21,10.78Zm8.92,59,1.27-40.4L231.88,139l-3.45-7.32,22.73-10.94,3.45,7.32L246,132.17l-1.35,44.52ZM290.38,146l.25,3.79,9.94-.26.25,8-9.68.25,1.09,14.65-4.46,4.21-16.16-2.28,1.1-7.91L284,168l-.76-10.1-32.41.68-.25-8,32.07-.67-.25-4H256.63v-8H297.2v8Zm-37,18.1L260,159.6l8.83,13.05-6.64,4.46ZM256,131.41l-.09-20.2,3.79-4,33.58-2.44,4.3,3.78,1.26,21L295,133.68l-34.93,1.6ZM263.87,117l22.22-1.44.5,8L264,125.1v2.1l26.6-1.26-.84-12.88-25.84,1.77Z" transform="translate(-80 -43.97)"/><path d="M313.61,168.19l8.76-.25-2.36-19,4-4.47,44.86-.58-11.2-9.94,5.22-6,11.36,10-5.13,5.9,3-.09,4,4.29-1.68,18.1,8.58-.34.25,8L314,176Zm7.91-31.39,7-8.34-10.6.34-.17-8,15.48-.42-7.49-9.76,6.23-4.88,9.09,11.7-3.62,2.77,18.27-.5,6.65-13.55,7.07,3.53-4.89,9.77,14.65-.51.34,7.83-40.4,1.35-11.54,13.72Zm22.39,18.09.51,12.29,7.66-.25.59-14.9-24.24.34,1.93,15.32,6.15-.26-.59-12.2Zm16.67-3L360,166.68l6.48-.26,1.35-14.64Z" transform="translate(-80 -43.97)"/><path d="M398,156.32l14.31-31.9,7.24,3.28-14.39,31.82Zm15.24,11.2L432,159l-4.21-51.09,7.91-.68,4.38,53.87L437.85,165l-21.21,9.68Zm31.81-35.1,6.49-4.63,15.57,22-6.4,4.63Z" transform="translate(-80 -43.97)"/><path d="M505.43,149l-3.28-3.28.34,29.88-7.91.17-.51-41.92-6.65,22.72-7.66-2.18L487.51,128l-4.72.5-.92-7.82,12-1.44-.17-13.63,8-.09.08,12.8,6.57-.84.93,7.91-7.41.92.08,8.17,9.18,9Zm43.43,27.44L530.6,166.17l-1.68-2.44-14.23,6.73-3.36-7.15,16.32-7.75-1.43-11.69-12,2.18-1.43-7.74L525.21,136l-1.34-10.61-12.12-.08.08-7.91,11.11.08-1.26-10.27,7.83-1.09,1.43,11.44h6.39l-3.78-9.09,7.23-3.19L546,117.69h5.73v7.83l-19.87-.09,1.18,9.18,13.64-2.53,1.34,7.75-14,2.6,1.17,9.52,15.32-7.24,3.37,7.15-17.59,8.42,16.58,9.34Z" transform="translate(-80 -43.97)"/><path d="M300,84.42,297.22,82l2.59-29.85,2.83-2L326.55,56l1.77,2.11.77,17.9-1.73,2.31Zm4.08-29.28L302,79.34l22.51-5L323.86,60Z" transform="translate(-80 -43.97)"/><path d="M351.41,85.14l-18.58-3.45L331,79.14l2.3-17.08,2-1.92L349.39,59l2.21,1.2,4.08,8.07-1.58,3.21-14.93,3.12-1-4.36,12.05-2.6-2-4-10.75.82-1.73,13.2,16.51,3.07Z" transform="translate(-80 -43.97)"/><path d="M367.39,82.94l-4-.63-7.25-23.52,4.32-1.34,5.9,19.15,12.24-17,3.65,2.64Z" transform="translate(-80 -43.97)"/><path d="M395.62,64.36,384.19,52l3.31-3,11.38,12.29Zm6.24,21.26-4.52,0,.29-18L398.4,66l17.76-15.79,3,3.41-17,15.07Z" transform="translate(-80 -43.97)"/><path d="M425.62,84.18l-4.52-.52,2.36-19.06,4.51.53Zm-1.88-22.36-1.43-5.38,4.36-1.2,1.44,5.38Z" transform="translate(-80 -43.97)"/><path d="M436.7,86.87,430,84.52l2.4-6.62,6.67,2.3Z" transform="translate(-80 -43.97)"/><path d="M443.47,83.9,441,81.45l2.21-21.12,2.59-2,15.41,2.5-.72,4.46-13-2.11L445.78,79.1l16-1.92.53,4.51Z" transform="translate(-80 -43.97)"/><path d="M483.93,83l-17.56-1-2.12-2.45,1.16-16.47L467.57,61l15.93-.67,2.35,2.21.48,18.14Zm-15-5.37,12.82.72-.34-13.39-11.66.48Z" transform="translate(-80 -43.97)"/><path d="M492.77,82.79l-4.52-.38,1.92-20,2.84-2,10.46,2.84,10.13-2.84,2.88,2.12,1,20-4.52.24-.91-17.13-6.57,1.77.09,15.17-4.46.1L501,67.34l-6.52-1.83Z" transform="translate(-80 -43.97)"/></svg>